<svg xmlns="http://www.w3.org/2000/svg" xmlns:xlink="http://www.w3.org/1999/xlink" width="347" zoomAndPan="magnify" viewBox="0 0 260.25 215.249992" height="287" preserveAspectRatio="xMidYMid meet" version="1.0"><defs><g/><clipPath id="7a3836b575"><rect x="0" width="198" y="0" height="176"/></clipPath><clipPath id="976dbf9d7d"><path d="M 209.324219 141.585938 L 213.0625 141.585938 L 213.0625 145.324219 L 209.324219 145.324219 Z M 209.324219 141.585938 " clip-rule="nonzero"/></clipPath><clipPath id="31ff08da10"><path d="M 0.324219 0.585938 L 4.0625 0.585938 L 4.0625 4.324219 L 0.324219 4.324219 Z M 0.324219 0.585938 " clip-rule="nonzero"/></clipPath><clipPath id="163480579d"><rect x="0" width="5" y="0" height="5"/></clipPath></defs><g transform="matrix(1, 0, 0, 1, 31, 18)"><g clip-path="url(#7a3836b575)"><g fill="#252525" fill-opacity="1"><g transform="translate(0.350691, 137.163944)"><g><path d="M 9.921875 0 L 9.921875 -68.875 L 26.53125 -68.875 L 26.53125 -58.75 L 27.84375 -58.4375 C 32.132812 -66.269531 39.085938 -70.1875 48.703125 -70.1875 C 56.648438 -70.1875 62.488281 -68.019531 66.21875 -63.6875 C 69.945312 -59.351562 71.8125 -53.046875 71.8125 -44.765625 L 71.8125 0 L 54.515625 0 L 54.515625 -42.640625 C 54.515625 -47.222656 53.597656 -50.523438 51.765625 -52.546875 C 49.929688 -54.566406 46.992188 -55.578125 42.953125 -55.578125 C 38.003906 -55.578125 34.144531 -53.972656 31.375 -50.765625 C 28.601562 -47.554688 27.21875 -42.519531 27.21875 -35.65625 L 27.21875 0 Z M 9.921875 0 "/></g></g></g><g fill="#252525" fill-opacity="1"><g transform="translate(81.022075, 137.163944)"><g><path d="M 18.546875 -77.109375 C 15.421875 -77.109375 12.878906 -78.054688 10.921875 -79.953125 C 8.972656 -81.847656 8 -84.296875 8 -87.296875 C 8 -90.242188 8.972656 -92.664062 10.921875 -94.5625 C 12.878906 -96.457031 15.421875 -97.40625 18.546875 -97.40625 C 20.628906 -97.40625 22.476562 -96.96875 24.09375 -96.09375 C 25.71875 -95.21875 26.976562 -94.019531 27.875 -92.5 C 28.769531 -90.976562 29.21875 -89.242188 29.21875 -87.296875 C 29.21875 -85.335938 28.769531 -83.585938 27.875 -82.046875 C 26.976562 -80.503906 25.71875 -79.296875 24.09375 -78.421875 C 22.476562 -77.546875 20.628906 -77.109375 18.546875 -77.109375 Z M 9.921875 0 L 9.921875 -68.875 L 27.21875 -68.875 L 27.21875 0 Z M 9.921875 0 "/></g></g></g><g fill="#252525" fill-opacity="1"><g transform="translate(118.110931, 137.163944)"><g><path d="M 28.59375 1.3125 C 22.394531 1.3125 17.660156 -0.359375 14.390625 -3.703125 C 11.117188 -7.054688 9.484375 -12.148438 9.484375 -18.984375 L 9.484375 -96.53125 L 26.78125 -96.53125 L 26.78125 -19.671875 C 26.78125 -15.460938 28.53125 -13.359375 32.03125 -13.359375 C 33.03125 -13.359375 34.09375 -13.523438 35.21875 -13.859375 L 36.09375 -13.609375 L 37.65625 -0.3125 C 36.695312 0.1875 35.425781 0.582031 33.84375 0.875 C 32.257812 1.164062 30.507812 1.3125 28.59375 1.3125 Z M 28.59375 1.3125 "/></g></g></g><g fill="#252525" fill-opacity="1"><g transform="translate(161.631149, 137.163944)"><g><path d="M 17.609375 0.5625 C 15.398438 0.5625 13.453125 0.113281 11.765625 -0.78125 C 10.078125 -1.675781 8.785156 -2.914062 7.890625 -4.5 C 7.003906 -6.082031 6.5625 -7.867188 6.5625 -9.859375 C 6.5625 -11.859375 7.003906 -13.648438 7.890625 -15.234375 C 8.785156 -16.816406 10.078125 -18.066406 11.765625 -18.984375 C 13.453125 -19.898438 15.398438 -20.359375 17.609375 -20.359375 C 19.859375 -20.359375 21.820312 -19.910156 23.5 -19.015625 C 25.1875 -18.117188 26.476562 -16.878906 27.375 -15.296875 C 28.269531 -13.710938 28.71875 -11.921875 28.71875 -9.921875 C 28.71875 -6.890625 27.707031 -4.382812 25.6875 -2.40625 C 23.675781 -0.425781 20.984375 0.5625 17.609375 0.5625 Z M 17.609375 0.5625 "/></g></g></g></g></g><g clip-path="url(#976dbf9d7d)"><g transform="matrix(1, 0, 0, 1, 209, 141)"><g clip-path="url(#163480579d)"><g clip-path="url(#31ff08da10)"><path fill="#252525" d="M 0.324219 0.585938 L 4.0625 0.585938 L 4.0625 4.324219 L 0.324219 4.324219 Z M 0.324219 0.585938 " fill-opacity="1" fill-rule="nonzero"/></g></g></g></g></svg>